<svg xmlns="http://www.w3.org/2000/svg" width="1000" height="650" viewBox="0 0 1000 650">
<rect width="1000" height="650" fill="#090b10"/><g opacity=".45"><circle cx="201" cy="196" r="1" fill="#fff"/><circle cx="986" cy="408" r="1" fill="#fff"/><circle cx="744" cy="610" r="1" fill="#fff"/><circle cx="839" cy="10" r="1" fill="#fff"/><circle cx="950" cy="78" r="1" fill="#fff"/><circle cx="49" cy="443" r="1" fill="#fff"/><circle cx="943" cy="223" r="1" fill="#fff"/><circle cx="171" cy="586" r="2" fill="#fff"/><circle cx="608" cy="297" r="1" fill="#fff"/><circle cx="470" cy="132" r="1" fill="#fff"/><circle cx="844" cy="184" r="1" fill="#fff"/><circle cx="430" cy="472" r="1" fill="#fff"/><circle cx="451" cy="608" r="1" fill="#fff"/><circle cx="236" cy="464" r="2" fill="#fff"/><circle cx="489" cy="188" r="1" fill="#fff"/><circle cx="386" cy="546" r="2" fill="#fff"/><circle cx="524" cy="432" r="1" fill="#fff"/><circle cx="350" cy="610" r="1" fill="#fff"/><circle cx="241" cy="77" r="1" fill="#fff"/><circle cx="831" cy="56" r="2" fill="#fff"/><circle cx="640" cy="18" r="1" fill="#fff"/><circle cx="463" cy="109" r="1" fill="#fff"/><circle cx="84" cy="154" r="1" fill="#fff"/><circle cx="694" cy="150" r="1" fill="#fff"/><circle cx="483" cy="385" r="2" fill="#fff"/><circle cx="254" cy="614" r="1" fill="#fff"/><circle cx="234" cy="18" r="1" fill="#fff"/><circle cx="924" cy="577" r="1" fill="#fff"/><circle cx="172" cy="8" r="2" fill="#fff"/><circle cx="60" cy="118" r="2" fill="#fff"/><circle cx="785" cy="16" r="2" fill="#fff"/><circle cx="273" cy="438" r="1" fill="#fff"/><circle cx="299" cy="378" r="1" fill="#fff"/><circle cx="463" cy="112" r="2" fill="#fff"/><circle cx="815" cy="51" r="1" fill="#fff"/><circle cx="316" cy="167" r="1" fill="#fff"/><circle cx="972" cy="258" r="1" fill="#fff"/><circle cx="802" cy="68" r="1" fill="#fff"/><circle cx="273" cy="104" r="2" fill="#fff"/><circle cx="395" cy="599" r="2" fill="#fff"/><circle cx="489" cy="89" r="2" fill="#fff"/><circle cx="751" cy="103" r="1" fill="#fff"/><circle cx="1000" cy="85" r="1" fill="#fff"/><circle cx="909" cy="26" r="2" fill="#fff"/><circle cx="589" cy="376" r="1" fill="#fff"/><circle cx="996" cy="165" r="1" fill="#fff"/><circle cx="525" cy="310" r="1" fill="#fff"/><circle cx="93" cy="105" r="1" fill="#fff"/><circle cx="969" cy="367" r="1" fill="#fff"/><circle cx="21" cy="39" r="1" fill="#fff"/><circle cx="70" cy="351" r="2" fill="#fff"/><circle cx="657" cy="292" r="2" fill="#fff"/><circle cx="984" cy="579" r="1" fill="#fff"/><circle cx="909" cy="87" r="1" fill="#fff"/><circle cx="103" cy="172" r="1" fill="#fff"/><circle cx="298" cy="518" r="2" fill="#fff"/><circle cx="349" cy="619" r="2" fill="#fff"/><circle cx="992" cy="433" r="1" fill="#fff"/><circle cx="731" cy="147" r="1" fill="#fff"/><circle cx="14" cy="198" r="1" fill="#fff"/><circle cx="934" cy="230" r="1" fill="#fff"/><circle cx="80" cy="111" r="1" fill="#fff"/><circle cx="433" cy="516" r="2" fill="#fff"/><circle cx="683" cy="9" r="2" fill="#fff"/><circle cx="108" cy="386" r="2" fill="#fff"/></g>
<polygon points="800,305 625,194 315,250 165,305 315,360 625,416" fill="#301722" stroke="#e26d67" stroke-width="5"/>
<path d="M250 305 L720 305" stroke="#e26d67" opacity=".35" stroke-width="3"/>
<circle cx="560" cy="305" r="38" fill="#090b10" stroke="#e26d67" opacity=".8"/>
<rect x="0" y="530" width="1000" height="120" fill="#090b10" opacity=".96"/>
<text x="48" y="576" fill="#e26d67" font-family="monospace" font-size="17">REPAIR TENDER // REPAIR / SALVAGE</text>
<text x="48" y="620" fill="#edf5f3" font-family="Arial" font-weight="700" font-size="36">Forge Tender</text>
<text x="950" y="615" fill="#f2bf69" font-family="monospace" text-anchor="end" font-size="17">₡280,000</text></svg>