<svg xmlns="http://www.w3.org/2000/svg" width="1000" height="700" viewBox="0 0 1000 700">
<defs><radialGradient id="space"><stop stop-color="#50251b" stop-opacity=".22"/><stop offset="1" stop-color="#130b0b"/></radialGradient><radialGradient id="shade" cx=".28" cy=".25"><stop offset=".0" stop-color="white" stop-opacity=".25"/><stop offset=".5" stop-color="transparent"/><stop offset="1" stop-color="#000" stop-opacity=".9"/></radialGradient></defs>
<rect width="1000" height="700" fill="#130b0b"/><rect width="1000" height="700" fill="url(#space)"/>
<g opacity=".55"><circle cx="539" cy="363" r="1" fill="#fff"/><circle cx="766" cy="171" r="2" fill="#fff"/><circle cx="208" cy="355" r="1" fill="#fff"/><circle cx="126" cy="16" r="1" fill="#fff"/><circle cx="42" cy="300" r="1" fill="#fff"/><circle cx="715" cy="495" r="2" fill="#fff"/><circle cx="495" cy="138" r="1" fill="#fff"/><circle cx="133" cy="423" r="1" fill="#fff"/><circle cx="297" cy="249" r="2" fill="#fff"/><circle cx="386" cy="99" r="1" fill="#fff"/><circle cx="491" cy="199" r="1" fill="#fff"/><circle cx="395" cy="568" r="1" fill="#fff"/><circle cx="441" cy="248" r="1" fill="#fff"/><circle cx="181" cy="334" r="1" fill="#fff"/><circle cx="271" cy="17" r="2" fill="#fff"/><circle cx="408" cy="52" r="2" fill="#fff"/><circle cx="904" cy="610" r="1" fill="#fff"/><circle cx="908" cy="560" r="2" fill="#fff"/><circle cx="235" cy="310" r="2" fill="#fff"/><circle cx="155" cy="14" r="1" fill="#fff"/><circle cx="334" cy="671" r="1" fill="#fff"/><circle cx="5" cy="399" r="2" fill="#fff"/><circle cx="13" cy="78" r="2" fill="#fff"/><circle cx="933" cy="26" r="1" fill="#fff"/><circle cx="320" cy="623" r="1" fill="#fff"/><circle cx="769" cy="157" r="1" fill="#fff"/><circle cx="423" cy="207" r="2" fill="#fff"/><circle cx="188" cy="693" r="1" fill="#fff"/><circle cx="293" cy="270" r="1" fill="#fff"/><circle cx="940" cy="296" r="1" fill="#fff"/><circle cx="996" cy="541" r="1" fill="#fff"/><circle cx="845" cy="403" r="1" fill="#fff"/><circle cx="970" cy="672" r="1" fill="#fff"/><circle cx="934" cy="344" r="1" fill="#fff"/><circle cx="39" cy="326" r="2" fill="#fff"/><circle cx="944" cy="500" r="1" fill="#fff"/><circle cx="164" cy="283" r="1" fill="#fff"/><circle cx="443" cy="281" r="1" fill="#fff"/><circle cx="749" cy="45" r="2" fill="#fff"/><circle cx="496" cy="514" r="2" fill="#fff"/><circle cx="49" cy="626" r="1" fill="#fff"/><circle cx="654" cy="102" r="2" fill="#fff"/><circle cx="364" cy="305" r="1" fill="#fff"/><circle cx="458" cy="387" r="1" fill="#fff"/><circle cx="626" cy="423" r="2" fill="#fff"/><circle cx="387" cy="579" r="1" fill="#fff"/><circle cx="473" cy="73" r="1" fill="#fff"/><circle cx="1000" cy="139" r="1" fill="#fff"/><circle cx="342" cy="277" r="1" fill="#fff"/><circle cx="561" cy="620" r="1" fill="#fff"/><circle cx="478" cy="127" r="1" fill="#fff"/><circle cx="427" cy="553" r="1" fill="#fff"/><circle cx="12" cy="109" r="2" fill="#fff"/><circle cx="519" cy="76" r="2" fill="#fff"/><circle cx="118" cy="634" r="1" fill="#fff"/><circle cx="865" cy="607" r="1" fill="#fff"/><circle cx="100" cy="308" r="1" fill="#fff"/><circle cx="169" cy="664" r="2" fill="#fff"/><circle cx="9" cy="502" r="2" fill="#fff"/><circle cx="553" cy="659" r="1" fill="#fff"/><circle cx="200" cy="0" r="1" fill="#fff"/><circle cx="76" cy="451" r="1" fill="#fff"/><circle cx="938" cy="227" r="1" fill="#fff"/><circle cx="476" cy="251" r="1" fill="#fff"/><circle cx="772" cy="633" r="1" fill="#fff"/><circle cx="570" cy="317" r="1" fill="#fff"/><circle cx="743" cy="171" r="2" fill="#fff"/><circle cx="261" cy="373" r="1" fill="#fff"/><circle cx="211" cy="349" r="1" fill="#fff"/><circle cx="143" cy="383" r="1" fill="#fff"/><circle cx="996" cy="659" r="1" fill="#fff"/><circle cx="153" cy="548" r="1" fill="#fff"/><circle cx="884" cy="687" r="1" fill="#fff"/><circle cx="990" cy="565" r="1" fill="#fff"/><circle cx="174" cy="59" r="1" fill="#fff"/><circle cx="602" cy="190" r="1" fill="#fff"/><circle cx="22" cy="146" r="1" fill="#fff"/><circle cx="29" cy="227" r="1" fill="#fff"/><circle cx="555" cy="51" r="1" fill="#fff"/><circle cx="710" cy="294" r="1" fill="#fff"/><circle cx="648" cy="615" r="1" fill="#fff"/><circle cx="757" cy="293" r="1" fill="#fff"/><circle cx="118" cy="270" r="1" fill="#fff"/><circle cx="386" cy="239" r="1" fill="#fff"/><circle cx="305" cy="518" r="2" fill="#fff"/><circle cx="129" cy="280" r="1" fill="#fff"/><circle cx="50" cy="691" r="1" fill="#fff"/><circle cx="696" cy="686" r="1" fill="#fff"/><circle cx="547" cy="372" r="1" fill="#fff"/><circle cx="320" cy="300" r="1" fill="#fff"/><circle cx="401" cy="360" r="1" fill="#fff"/><circle cx="819" cy="244" r="1" fill="#fff"/><circle cx="762" cy="648" r="1" fill="#fff"/><circle cx="214" cy="1" r="2" fill="#fff"/><circle cx="587" cy="583" r="2" fill="#fff"/></g>
<g transform="translate(0,-150)"><circle cx="500" cy="500" r="280" fill="#50251b"/><ellipse cx="500" cy="500" rx="420" ry="100" fill="none" stroke="#f6c46e" stroke-width="18" opacity=".45" transform="rotate(-17 500 500)"/><ellipse cx="500" cy="500" rx="450" ry="108" fill="none" stroke="#e26d3d" stroke-width="4" opacity=".5" transform="rotate(-17 500 500)"/><clipPath id="clip"><circle cx="500" cy="500" r="280"/></clipPath><g clip-path="url(#clip)"><ellipse cx="566" cy="513" rx="121" ry="27" fill="#e26d3d" opacity="0.15" transform="rotate(2 500 500)"/><ellipse cx="588" cy="596" rx="369" ry="51" fill="#e26d3d" opacity="0.25" transform="rotate(7 500 500)"/><ellipse cx="650" cy="500" rx="184" ry="63" fill="#e26d3d" opacity="0.27" transform="rotate(5 500 500)"/><ellipse cx="425" cy="302" rx="121" ry="25" fill="#e26d3d" opacity="0.28" transform="rotate(-10 500 500)"/><ellipse cx="519" cy="515" rx="346" ry="21" fill="#e26d3d" opacity="0.18" transform="rotate(8 500 500)"/><ellipse cx="475" cy="647" rx="259" ry="27" fill="#e26d3d" opacity="0.13" transform="rotate(-22 500 500)"/><ellipse cx="532" cy="638" rx="191" ry="41" fill="#e26d3d" opacity="0.25" transform="rotate(7 500 500)"/><ellipse cx="629" cy="466" rx="142" ry="14" fill="#e26d3d" opacity="0.17" transform="rotate(12 500 500)"/><ellipse cx="406" cy="340" rx="359" ry="49" fill="#e26d3d" opacity="0.14" transform="rotate(24 500 500)"/><ellipse cx="385" cy="355" rx="256" ry="45" fill="#e26d3d" opacity="0.14" transform="rotate(21 500 500)"/><ellipse cx="550" cy="620" rx="311" ry="42" fill="#e26d3d" opacity="0.31" transform="rotate(-18 500 500)"/><circle cx="530" cy="369" r="11" fill="#130b0b" opacity="0.20"/><circle cx="507" cy="668" r="21" fill="#130b0b" opacity="0.21"/><circle cx="620" cy="713" r="9" fill="#130b0b" opacity="0.26"/><circle cx="427" cy="297" r="33" fill="#130b0b" opacity="0.20"/><circle cx="463" cy="290" r="16" fill="#130b0b" opacity="0.10"/><circle cx="506" cy="276" r="42" fill="#130b0b" opacity="0.13"/><circle cx="662" cy="434" r="9" fill="#130b0b" opacity="0.11"/></g><circle cx="500" cy="500" r="280" fill="url(#shade)" opacity=".75"/></g>
<rect x="0" y="565" width="1000" height="135" fill="#130b0b" opacity=".87"/>
<text x="55" y="615" fill="#f6c46e" font-family="monospace" font-size="19" letter-spacing="5">MERIDIAN BELT</text>
<text x="55" y="665" fill="#edf5f3" font-family="Arial,sans-serif" font-weight="700" font-size="42">Khepri Belt</text>
<text x="945" y="660" fill="#e26d3d" font-family="monospace" text-anchor="end" font-size="17">ASTEROID MINING</text>
</svg>