<svg xmlns="http://www.w3.org/2000/svg" width="1000" height="650" viewBox="0 0 1000 650">
<rect width="1000" height="650" fill="#070910"/><g opacity=".45"><circle cx="876" cy="429" r="1" fill="#fff"/><circle cx="705" cy="16" r="1" fill="#fff"/><circle cx="138" cy="226" r="1" fill="#fff"/><circle cx="521" cy="422" r="1" fill="#fff"/><circle cx="142" cy="236" r="2" fill="#fff"/><circle cx="673" cy="241" r="1" fill="#fff"/><circle cx="270" cy="43" r="2" fill="#fff"/><circle cx="358" cy="318" r="1" fill="#fff"/><circle cx="96" cy="132" r="1" fill="#fff"/><circle cx="110" cy="617" r="1" fill="#fff"/><circle cx="953" cy="73" r="1" fill="#fff"/><circle cx="271" cy="186" r="2" fill="#fff"/><circle cx="19" cy="422" r="1" fill="#fff"/><circle cx="77" cy="289" r="2" fill="#fff"/><circle cx="64" cy="126" r="2" fill="#fff"/><circle cx="712" cy="294" r="1" fill="#fff"/><circle cx="49" cy="335" r="2" fill="#fff"/><circle cx="938" cy="37" r="1" fill="#fff"/><circle cx="358" cy="640" r="1" fill="#fff"/><circle cx="382" cy="548" r="1" fill="#fff"/><circle cx="411" cy="84" r="1" fill="#fff"/><circle cx="519" cy="71" r="2" fill="#fff"/><circle cx="495" cy="30" r="1" fill="#fff"/><circle cx="280" cy="358" r="1" fill="#fff"/><circle cx="76" cy="373" r="1" fill="#fff"/><circle cx="49" cy="219" r="2" fill="#fff"/><circle cx="948" cy="351" r="1" fill="#fff"/><circle cx="691" cy="245" r="1" fill="#fff"/><circle cx="683" cy="460" r="1" fill="#fff"/><circle cx="630" cy="16" r="1" fill="#fff"/><circle cx="267" cy="569" r="1" fill="#fff"/><circle cx="237" cy="224" r="1" fill="#fff"/><circle cx="886" cy="369" r="2" fill="#fff"/><circle cx="184" cy="107" r="1" fill="#fff"/><circle cx="404" cy="470" r="2" fill="#fff"/><circle cx="702" cy="619" r="1" fill="#fff"/><circle cx="560" cy="12" r="2" fill="#fff"/><circle cx="206" cy="328" r="2" fill="#fff"/><circle cx="776" cy="372" r="1" fill="#fff"/><circle cx="294" cy="193" r="1" fill="#fff"/><circle cx="225" cy="47" r="1" fill="#fff"/><circle cx="817" cy="617" r="1" fill="#fff"/><circle cx="151" cy="51" r="1" fill="#fff"/><circle cx="97" cy="37" r="2" fill="#fff"/><circle cx="158" cy="488" r="2" fill="#fff"/><circle cx="845" cy="354" r="1" fill="#fff"/><circle cx="133" cy="73" r="1" fill="#fff"/><circle cx="453" cy="586" r="2" fill="#fff"/><circle cx="110" cy="106" r="1" fill="#fff"/><circle cx="232" cy="349" r="1" fill="#fff"/><circle cx="616" cy="431" r="2" fill="#fff"/><circle cx="559" cy="344" r="1" fill="#fff"/><circle cx="852" cy="607" r="2" fill="#fff"/><circle cx="428" cy="443" r="1" fill="#fff"/><circle cx="475" cy="46" r="1" fill="#fff"/><circle cx="225" cy="585" r="1" fill="#fff"/><circle cx="526" cy="285" r="1" fill="#fff"/><circle cx="404" cy="567" r="1" fill="#fff"/><circle cx="643" cy="264" r="2" fill="#fff"/><circle cx="137" cy="485" r="1" fill="#fff"/><circle cx="207" cy="374" r="1" fill="#fff"/><circle cx="879" cy="317" r="1" fill="#fff"/><circle cx="164" cy="590" r="1" fill="#fff"/><circle cx="569" cy="601" r="2" fill="#fff"/><circle cx="981" cy="121" r="2" fill="#fff"/></g>
<polygon points="800,305 625,215 315,260 165,305 315,350 625,395" fill="#221e3a" stroke="#a58bea" stroke-width="5"/>
<path d="M250 305 L720 305" stroke="#a58bea" opacity=".35" stroke-width="3"/>
<circle cx="560" cy="305" r="38" fill="#070910" stroke="#a58bea" opacity=".8"/>
<rect x="0" y="530" width="1000" height="120" fill="#070910" opacity=".96"/>
<text x="48" y="576" fill="#a58bea" font-family="monospace" font-size="17">HABITAT SHIP // COLONY / NOMAD</text>
<text x="48" y="620" fill="#edf5f3" font-family="Arial" font-weight="700" font-size="36">Nomad Arklet</text>
<text x="950" y="615" fill="#70dfe7" font-family="monospace" text-anchor="end" font-size="17">₡750,000</text></svg>