<svg xmlns="http://www.w3.org/2000/svg" width="1000" height="700" viewBox="0 0 1000 700">
<defs><radialGradient id="space"><stop stop-color="#3a284d" stop-opacity=".22"/><stop offset="1" stop-color="#100b16"/></radialGradient><radialGradient id="shade" cx=".28" cy=".25"><stop offset=".0" stop-color="white" stop-opacity=".25"/><stop offset=".5" stop-color="transparent"/><stop offset="1" stop-color="#000" stop-opacity=".9"/></radialGradient></defs>
<rect width="1000" height="700" fill="#100b16"/><rect width="1000" height="700" fill="url(#space)"/>
<g opacity=".55"><circle cx="623" cy="588" r="1" fill="#fff"/><circle cx="510" cy="556" r="2" fill="#fff"/><circle cx="193" cy="143" r="2" fill="#fff"/><circle cx="705" cy="22" r="2" fill="#fff"/><circle cx="123" cy="305" r="2" fill="#fff"/><circle cx="519" cy="159" r="2" fill="#fff"/><circle cx="398" cy="510" r="1" fill="#fff"/><circle cx="356" cy="585" r="2" fill="#fff"/><circle cx="700" cy="479" r="1" fill="#fff"/><circle cx="148" cy="646" r="2" fill="#fff"/><circle cx="336" cy="403" r="1" fill="#fff"/><circle cx="302" cy="220" r="1" fill="#fff"/><circle cx="917" cy="458" r="1" fill="#fff"/><circle cx="872" cy="239" r="1" fill="#fff"/><circle cx="163" cy="696" r="2" fill="#fff"/><circle cx="995" cy="464" r="1" fill="#fff"/><circle cx="77" cy="559" r="1" fill="#fff"/><circle cx="81" cy="234" r="1" fill="#fff"/><circle cx="598" cy="250" r="1" fill="#fff"/><circle cx="567" cy="204" r="1" fill="#fff"/><circle cx="377" cy="143" r="1" fill="#fff"/><circle cx="841" cy="499" r="1" fill="#fff"/><circle cx="125" cy="400" r="1" fill="#fff"/><circle cx="80" cy="104" r="1" fill="#fff"/><circle cx="392" cy="86" r="1" fill="#fff"/><circle cx="608" cy="110" r="1" fill="#fff"/><circle cx="111" cy="595" r="1" fill="#fff"/><circle cx="416" cy="580" r="1" fill="#fff"/><circle cx="379" cy="688" r="2" fill="#fff"/><circle cx="997" cy="136" r="1" fill="#fff"/><circle cx="592" cy="152" r="1" fill="#fff"/><circle cx="989" cy="107" r="1" fill="#fff"/><circle cx="476" cy="122" r="1" fill="#fff"/><circle cx="842" cy="173" r="2" fill="#fff"/><circle cx="53" cy="200" r="1" fill="#fff"/><circle cx="172" cy="323" r="1" fill="#fff"/><circle cx="352" cy="43" r="2" fill="#fff"/><circle cx="741" cy="299" r="1" fill="#fff"/><circle cx="878" cy="448" r="1" fill="#fff"/><circle cx="467" cy="689" r="1" fill="#fff"/><circle cx="511" cy="146" r="2" fill="#fff"/><circle cx="173" cy="211" r="1" fill="#fff"/><circle cx="92" cy="171" r="1" fill="#fff"/><circle cx="257" cy="340" r="1" fill="#fff"/><circle cx="601" cy="194" r="2" fill="#fff"/><circle cx="356" cy="281" r="1" fill="#fff"/><circle cx="426" cy="580" r="2" fill="#fff"/><circle cx="868" cy="526" r="1" fill="#fff"/><circle cx="597" cy="181" r="1" fill="#fff"/><circle cx="891" cy="168" r="1" fill="#fff"/><circle cx="899" cy="106" r="2" fill="#fff"/><circle cx="519" cy="622" r="2" fill="#fff"/><circle cx="196" cy="329" r="1" fill="#fff"/><circle cx="276" cy="70" r="1" fill="#fff"/><circle cx="664" cy="645" r="2" fill="#fff"/><circle cx="383" cy="319" r="1" fill="#fff"/><circle cx="397" cy="318" r="1" fill="#fff"/><circle cx="991" cy="395" r="1" fill="#fff"/><circle cx="710" cy="49" r="1" fill="#fff"/><circle cx="64" cy="647" r="2" fill="#fff"/><circle cx="47" cy="636" r="2" fill="#fff"/><circle cx="336" cy="364" r="1" fill="#fff"/><circle cx="103" cy="153" r="1" fill="#fff"/><circle cx="808" cy="330" r="1" fill="#fff"/><circle cx="820" cy="591" r="1" fill="#fff"/><circle cx="413" cy="109" r="1" fill="#fff"/><circle cx="135" cy="511" r="2" fill="#fff"/><circle cx="370" cy="469" r="1" fill="#fff"/><circle cx="676" cy="495" r="1" fill="#fff"/><circle cx="124" cy="283" r="1" fill="#fff"/><circle cx="622" cy="649" r="2" fill="#fff"/><circle cx="457" cy="316" r="1" fill="#fff"/><circle cx="58" cy="139" r="1" fill="#fff"/><circle cx="737" cy="351" r="1" fill="#fff"/><circle cx="200" cy="300" r="1" fill="#fff"/><circle cx="389" cy="185" r="1" fill="#fff"/><circle cx="935" cy="624" r="2" fill="#fff"/><circle cx="355" cy="604" r="1" fill="#fff"/><circle cx="573" cy="433" r="1" fill="#fff"/><circle cx="74" cy="496" r="1" fill="#fff"/><circle cx="506" cy="353" r="1" fill="#fff"/><circle cx="860" cy="647" r="2" fill="#fff"/><circle cx="405" cy="145" r="2" fill="#fff"/><circle cx="416" cy="97" r="1" fill="#fff"/><circle cx="152" cy="632" r="1" fill="#fff"/><circle cx="627" cy="129" r="1" fill="#fff"/><circle cx="27" cy="212" r="1" fill="#fff"/><circle cx="407" cy="305" r="1" fill="#fff"/><circle cx="889" cy="383" r="1" fill="#fff"/><circle cx="684" cy="306" r="1" fill="#fff"/><circle cx="477" cy="570" r="1" fill="#fff"/><circle cx="243" cy="482" r="2" fill="#fff"/><circle cx="367" cy="132" r="1" fill="#fff"/><circle cx="59" cy="356" r="1" fill="#fff"/><circle cx="71" cy="431" r="1" fill="#fff"/></g>
<g transform="translate(0,-150)"><circle cx="500" cy="500" r="280" fill="#3a284d"/><clipPath id="clip"><circle cx="500" cy="500" r="280"/></clipPath><g clip-path="url(#clip)"><ellipse cx="417" cy="712" rx="241" ry="20" fill="#a56bd4" opacity="0.32" transform="rotate(14 500 500)"/><ellipse cx="425" cy="412" rx="162" ry="41" fill="#a56bd4" opacity="0.19" transform="rotate(-3 500 500)"/><ellipse cx="491" cy="299" rx="159" ry="36" fill="#a56bd4" opacity="0.15" transform="rotate(-24 500 500)"/><ellipse cx="620" cy="377" rx="164" ry="13" fill="#a56bd4" opacity="0.20" transform="rotate(-23 500 500)"/><ellipse cx="455" cy="541" rx="215" ry="22" fill="#a56bd4" opacity="0.11" transform="rotate(22 500 500)"/><ellipse cx="439" cy="483" rx="295" ry="31" fill="#a56bd4" opacity="0.13" transform="rotate(-6 500 500)"/><ellipse cx="388" cy="386" rx="261" ry="60" fill="#a56bd4" opacity="0.31" transform="rotate(11 500 500)"/><ellipse cx="520" cy="655" rx="220" ry="49" fill="#a56bd4" opacity="0.19" transform="rotate(8 500 500)"/><ellipse cx="547" cy="293" rx="229" ry="36" fill="#a56bd4" opacity="0.11" transform="rotate(-17 500 500)"/><ellipse cx="582" cy="284" rx="171" ry="36" fill="#a56bd4" opacity="0.22" transform="rotate(23 500 500)"/><ellipse cx="472" cy="695" rx="297" ry="36" fill="#a56bd4" opacity="0.34" transform="rotate(10 500 500)"/><circle cx="285" cy="296" r="22" fill="#100b16" opacity="0.23"/><circle cx="422" cy="662" r="35" fill="#100b16" opacity="0.15"/><circle cx="592" cy="609" r="11" fill="#100b16" opacity="0.24"/><circle cx="547" cy="548" r="39" fill="#100b16" opacity="0.15"/><circle cx="620" cy="488" r="15" fill="#100b16" opacity="0.23"/><circle cx="516" cy="685" r="11" fill="#100b16" opacity="0.13"/><circle cx="675" cy="298" r="22" fill="#100b16" opacity="0.14"/></g><circle cx="500" cy="500" r="280" fill="url(#shade)" opacity=".75"/></g>
<rect x="0" y="565" width="1000" height="135" fill="#100b16" opacity=".87"/>
<text x="55" y="615" fill="#66dce6" font-family="monospace" font-size="19" letter-spacing="5">PILGRIM VEINS</text>
<text x="55" y="665" fill="#edf5f3" font-family="Arial,sans-serif" font-weight="700" font-size="42">Solace</text>
<text x="945" y="660" fill="#a56bd4" font-family="monospace" text-anchor="end" font-size="17">MEDICINE / REFUGE</text>
</svg>