<svg xmlns="http://www.w3.org/2000/svg" width="1000" height="700" viewBox="0 0 1000 700">
<defs><radialGradient id="space"><stop stop-color="#50251b" stop-opacity=".22"/><stop offset="1" stop-color="#130b0b"/></radialGradient><radialGradient id="shade" cx=".28" cy=".25"><stop offset=".0" stop-color="white" stop-opacity=".25"/><stop offset=".5" stop-color="transparent"/><stop offset="1" stop-color="#000" stop-opacity=".9"/></radialGradient></defs>
<rect width="1000" height="700" fill="#130b0b"/><rect width="1000" height="700" fill="url(#space)"/>
<g opacity=".55"><circle cx="811" cy="433" r="2" fill="#fff"/><circle cx="396" cy="103" r="1" fill="#fff"/><circle cx="777" cy="274" r="1" fill="#fff"/><circle cx="279" cy="459" r="2" fill="#fff"/><circle cx="367" cy="25" r="1" fill="#fff"/><circle cx="610" cy="180" r="1" fill="#fff"/><circle cx="972" cy="510" r="2" fill="#fff"/><circle cx="131" cy="158" r="2" fill="#fff"/><circle cx="53" cy="439" r="2" fill="#fff"/><circle cx="81" cy="92" r="1" fill="#fff"/><circle cx="215" cy="125" r="1" fill="#fff"/><circle cx="826" cy="650" r="1" fill="#fff"/><circle cx="202" cy="314" r="2" fill="#fff"/><circle cx="853" cy="180" r="1" fill="#fff"/><circle cx="213" cy="319" r="1" fill="#fff"/><circle cx="7" cy="10" r="2" fill="#fff"/><circle cx="823" cy="480" r="1" fill="#fff"/><circle cx="432" cy="689" r="1" fill="#fff"/><circle cx="655" cy="301" r="1" fill="#fff"/><circle cx="262" cy="401" r="2" fill="#fff"/><circle cx="422" cy="527" r="2" fill="#fff"/><circle cx="649" cy="175" r="2" fill="#fff"/><circle cx="513" cy="357" r="1" fill="#fff"/><circle cx="324" cy="197" r="1" fill="#fff"/><circle cx="22" cy="429" r="1" fill="#fff"/><circle cx="416" cy="644" r="1" fill="#fff"/><circle cx="466" cy="315" r="1" fill="#fff"/><circle cx="973" cy="395" r="1" fill="#fff"/><circle cx="308" cy="564" r="1" fill="#fff"/><circle cx="287" cy="166" r="1" fill="#fff"/><circle cx="215" cy="271" r="1" fill="#fff"/><circle cx="718" cy="197" r="1" fill="#fff"/><circle cx="306" cy="543" r="2" fill="#fff"/><circle cx="431" cy="258" r="1" fill="#fff"/><circle cx="981" cy="33" r="2" fill="#fff"/><circle cx="581" cy="413" r="2" fill="#fff"/><circle cx="895" cy="474" r="1" fill="#fff"/><circle cx="580" cy="238" r="2" fill="#fff"/><circle cx="723" cy="317" r="1" fill="#fff"/><circle cx="390" cy="76" r="2" fill="#fff"/><circle cx="7" cy="115" r="2" fill="#fff"/><circle cx="356" cy="269" r="2" fill="#fff"/><circle cx="554" cy="303" r="2" fill="#fff"/><circle cx="620" cy="501" r="1" fill="#fff"/><circle cx="496" cy="156" r="1" fill="#fff"/><circle cx="850" cy="628" r="1" fill="#fff"/><circle cx="640" cy="163" r="1" fill="#fff"/><circle cx="290" cy="580" r="2" fill="#fff"/><circle cx="289" cy="500" r="2" fill="#fff"/><circle cx="366" cy="545" r="1" fill="#fff"/><circle cx="793" cy="530" r="1" fill="#fff"/><circle cx="119" cy="57" r="1" fill="#fff"/><circle cx="143" cy="662" r="1" fill="#fff"/><circle cx="190" cy="141" r="1" fill="#fff"/><circle cx="392" cy="547" r="1" fill="#fff"/><circle cx="1" cy="493" r="1" fill="#fff"/><circle cx="309" cy="375" r="1" fill="#fff"/><circle cx="385" cy="547" r="1" fill="#fff"/><circle cx="87" cy="467" r="1" fill="#fff"/><circle cx="226" cy="148" r="2" fill="#fff"/><circle cx="428" cy="352" r="1" fill="#fff"/><circle cx="214" cy="556" r="1" fill="#fff"/><circle cx="499" cy="67" r="1" fill="#fff"/><circle cx="724" cy="358" r="1" fill="#fff"/><circle cx="198" cy="217" r="1" fill="#fff"/><circle cx="309" cy="392" r="2" fill="#fff"/><circle cx="182" cy="296" r="1" fill="#fff"/><circle cx="796" cy="64" r="1" fill="#fff"/><circle cx="732" cy="290" r="2" fill="#fff"/><circle cx="396" cy="539" r="1" fill="#fff"/><circle cx="486" cy="559" r="1" fill="#fff"/><circle cx="74" cy="57" r="1" fill="#fff"/><circle cx="872" cy="167" r="2" fill="#fff"/><circle cx="64" cy="173" r="1" fill="#fff"/><circle cx="582" cy="547" r="1" fill="#fff"/><circle cx="100" cy="506" r="1" fill="#fff"/><circle cx="340" cy="160" r="1" fill="#fff"/><circle cx="353" cy="181" r="1" fill="#fff"/><circle cx="958" cy="326" r="1" fill="#fff"/><circle cx="687" cy="290" r="1" fill="#fff"/><circle cx="9" cy="512" r="2" fill="#fff"/><circle cx="662" cy="425" r="1" fill="#fff"/><circle cx="525" cy="185" r="2" fill="#fff"/><circle cx="177" cy="249" r="1" fill="#fff"/><circle cx="198" cy="694" r="1" fill="#fff"/><circle cx="866" cy="448" r="1" fill="#fff"/><circle cx="226" cy="219" r="1" fill="#fff"/><circle cx="857" cy="587" r="1" fill="#fff"/><circle cx="247" cy="108" r="1" fill="#fff"/><circle cx="51" cy="51" r="1" fill="#fff"/><circle cx="129" cy="104" r="1" fill="#fff"/><circle cx="95" cy="551" r="1" fill="#fff"/><circle cx="182" cy="538" r="1" fill="#fff"/><circle cx="312" cy="575" r="1" fill="#fff"/><circle cx="53" cy="691" r="1" fill="#fff"/></g>
<g transform="translate(0,-150)"><circle cx="500" cy="500" r="280" fill="#50251b"/><clipPath id="clip"><circle cx="500" cy="500" r="280"/></clipPath><g clip-path="url(#clip)"><ellipse cx="479" cy="272" rx="333" ry="26" fill="#e26d3d" opacity="0.29" transform="rotate(-17 500 500)"/><ellipse cx="590" cy="626" rx="152" ry="30" fill="#e26d3d" opacity="0.13" transform="rotate(-13 500 500)"/><ellipse cx="522" cy="349" rx="238" ry="38" fill="#e26d3d" opacity="0.30" transform="rotate(-2 500 500)"/><ellipse cx="550" cy="268" rx="218" ry="58" fill="#e26d3d" opacity="0.22" transform="rotate(4 500 500)"/><ellipse cx="614" cy="551" rx="357" ry="19" fill="#e26d3d" opacity="0.11" transform="rotate(-13 500 500)"/><ellipse cx="483" cy="314" rx="285" ry="59" fill="#e26d3d" opacity="0.23" transform="rotate(-25 500 500)"/><ellipse cx="518" cy="419" rx="233" ry="54" fill="#e26d3d" opacity="0.22" transform="rotate(-9 500 500)"/><ellipse cx="494" cy="365" rx="227" ry="46" fill="#e26d3d" opacity="0.33" transform="rotate(-16 500 500)"/><ellipse cx="359" cy="643" rx="274" ry="32" fill="#e26d3d" opacity="0.22" transform="rotate(6 500 500)"/><ellipse cx="606" cy="397" rx="250" ry="46" fill="#e26d3d" opacity="0.10" transform="rotate(18 500 500)"/><ellipse cx="372" cy="478" rx="325" ry="16" fill="#e26d3d" opacity="0.16" transform="rotate(-14 500 500)"/><circle cx="503" cy="452" r="22" fill="#130b0b" opacity="0.10"/><circle cx="445" cy="671" r="22" fill="#130b0b" opacity="0.26"/><circle cx="510" cy="432" r="33" fill="#130b0b" opacity="0.23"/><circle cx="526" cy="721" r="34" fill="#130b0b" opacity="0.19"/><circle cx="609" cy="640" r="33" fill="#130b0b" opacity="0.16"/><circle cx="610" cy="540" r="15" fill="#130b0b" opacity="0.13"/><circle cx="674" cy="292" r="21" fill="#130b0b" opacity="0.15"/></g><circle cx="500" cy="500" r="280" fill="url(#shade)" opacity=".75"/></g>
<rect x="0" y="565" width="1000" height="135" fill="#130b0b" opacity=".87"/>
<text x="55" y="615" fill="#f6c46e" font-family="monospace" font-size="19" letter-spacing="5">MERIDIAN BELT</text>
<text x="55" y="665" fill="#edf5f3" font-family="Arial,sans-serif" font-weight="700" font-size="42">Verdigris</text>
<text x="945" y="660" fill="#e26d3d" font-family="monospace" text-anchor="end" font-size="17">BIOMATERIALS</text>
</svg>