<svg xmlns="http://www.w3.org/2000/svg" width="1000" height="650" viewBox="0 0 1000 650">
<rect width="1000" height="650" fill="#090b10"/><g opacity=".45"><circle cx="300" cy="489" r="1" fill="#fff"/><circle cx="792" cy="326" r="1" fill="#fff"/><circle cx="171" cy="214" r="2" fill="#fff"/><circle cx="678" cy="307" r="1" fill="#fff"/><circle cx="634" cy="301" r="2" fill="#fff"/><circle cx="509" cy="469" r="1" fill="#fff"/><circle cx="950" cy="380" r="1" fill="#fff"/><circle cx="457" cy="248" r="1" fill="#fff"/><circle cx="466" cy="144" r="1" fill="#fff"/><circle cx="391" cy="444" r="1" fill="#fff"/><circle cx="35" cy="10" r="2" fill="#fff"/><circle cx="997" cy="90" r="1" fill="#fff"/><circle cx="272" cy="533" r="2" fill="#fff"/><circle cx="415" cy="260" r="2" fill="#fff"/><circle cx="50" cy="28" r="2" fill="#fff"/><circle cx="763" cy="11" r="1" fill="#fff"/><circle cx="58" cy="69" r="1" fill="#fff"/><circle cx="359" cy="421" r="1" fill="#fff"/><circle cx="226" cy="176" r="1" fill="#fff"/><circle cx="280" cy="250" r="1" fill="#fff"/><circle cx="960" cy="25" r="2" fill="#fff"/><circle cx="357" cy="565" r="1" fill="#fff"/><circle cx="305" cy="272" r="2" fill="#fff"/><circle cx="287" cy="91" r="2" fill="#fff"/><circle cx="376" cy="332" r="2" fill="#fff"/><circle cx="612" cy="87" r="2" fill="#fff"/><circle cx="789" cy="464" r="2" fill="#fff"/><circle cx="404" cy="20" r="2" fill="#fff"/><circle cx="169" cy="346" r="1" fill="#fff"/><circle cx="714" cy="175" r="1" fill="#fff"/><circle cx="655" cy="486" r="1" fill="#fff"/><circle cx="848" cy="614" r="1" fill="#fff"/><circle cx="983" cy="632" r="2" fill="#fff"/><circle cx="96" cy="523" r="2" fill="#fff"/><circle cx="348" cy="316" r="2" fill="#fff"/><circle cx="172" cy="547" r="1" fill="#fff"/><circle cx="371" cy="120" r="1" fill="#fff"/><circle cx="737" cy="86" r="2" fill="#fff"/><circle cx="283" cy="288" r="1" fill="#fff"/><circle cx="250" cy="374" r="1" fill="#fff"/><circle cx="523" cy="215" r="1" fill="#fff"/><circle cx="432" cy="418" r="1" fill="#fff"/><circle cx="46" cy="129" r="1" fill="#fff"/><circle cx="86" cy="379" r="1" fill="#fff"/><circle cx="218" cy="319" r="1" fill="#fff"/><circle cx="855" cy="631" r="1" fill="#fff"/><circle cx="242" cy="381" r="1" fill="#fff"/><circle cx="9" cy="345" r="1" fill="#fff"/><circle cx="565" cy="8" r="2" fill="#fff"/><circle cx="529" cy="117" r="1" fill="#fff"/><circle cx="860" cy="81" r="1" fill="#fff"/><circle cx="607" cy="92" r="1" fill="#fff"/><circle cx="39" cy="464" r="1" fill="#fff"/><circle cx="969" cy="411" r="1" fill="#fff"/><circle cx="213" cy="71" r="1" fill="#fff"/><circle cx="28" cy="313" r="1" fill="#fff"/><circle cx="925" cy="567" r="2" fill="#fff"/><circle cx="506" cy="320" r="1" fill="#fff"/><circle cx="822" cy="53" r="1" fill="#fff"/><circle cx="561" cy="513" r="2" fill="#fff"/><circle cx="974" cy="379" r="1" fill="#fff"/><circle cx="564" cy="604" r="2" fill="#fff"/><circle cx="653" cy="134" r="2" fill="#fff"/><circle cx="957" cy="80" r="1" fill="#fff"/><circle cx="643" cy="454" r="2" fill="#fff"/></g>
<polygon points="800,305 625,210 315,258 165,305 315,352 625,400" fill="#301722" stroke="#e26d67" stroke-width="5"/>
<path d="M250 305 L720 305" stroke="#e26d67" opacity=".35" stroke-width="3"/>
<circle cx="560" cy="305" r="38" fill="#090b10" stroke="#e26d67" opacity=".8"/>
<rect x="0" y="530" width="1000" height="120" fill="#090b10" opacity=".96"/>
<text x="48" y="576" fill="#e26d67" font-family="monospace" font-size="17">LIGHT FREIGHTER // GENERAL PURPOSE</text>
<text x="48" y="620" fill="#edf5f3" font-family="Arial" font-weight="700" font-size="36">Wayfarer Light Freighter</text>
<text x="950" y="615" fill="#f2bf69" font-family="monospace" text-anchor="end" font-size="17">₡140,000</text></svg>