<svg xmlns="http://www.w3.org/2000/svg" width="1000" height="650" viewBox="0 0 1000 650">
<rect width="1000" height="650" fill="#090b10"/><g opacity=".45"><circle cx="381" cy="497" r="1" fill="#fff"/><circle cx="360" cy="148" r="1" fill="#fff"/><circle cx="288" cy="497" r="1" fill="#fff"/><circle cx="114" cy="532" r="1" fill="#fff"/><circle cx="699" cy="267" r="2" fill="#fff"/><circle cx="201" cy="99" r="2" fill="#fff"/><circle cx="424" cy="264" r="1" fill="#fff"/><circle cx="100" cy="505" r="1" fill="#fff"/><circle cx="293" cy="632" r="1" fill="#fff"/><circle cx="376" cy="130" r="2" fill="#fff"/><circle cx="949" cy="129" r="2" fill="#fff"/><circle cx="553" cy="167" r="1" fill="#fff"/><circle cx="795" cy="636" r="1" fill="#fff"/><circle cx="691" cy="123" r="1" fill="#fff"/><circle cx="541" cy="439" r="1" fill="#fff"/><circle cx="632" cy="26" r="2" fill="#fff"/><circle cx="968" cy="117" r="1" fill="#fff"/><circle cx="201" cy="117" r="2" fill="#fff"/><circle cx="980" cy="188" r="1" fill="#fff"/><circle cx="469" cy="208" r="1" fill="#fff"/><circle cx="502" cy="459" r="1" fill="#fff"/><circle cx="980" cy="240" r="1" fill="#fff"/><circle cx="33" cy="530" r="2" fill="#fff"/><circle cx="12" cy="526" r="1" fill="#fff"/><circle cx="983" cy="417" r="1" fill="#fff"/><circle cx="793" cy="605" r="1" fill="#fff"/><circle cx="886" cy="192" r="2" fill="#fff"/><circle cx="475" cy="173" r="1" fill="#fff"/><circle cx="182" cy="209" r="1" fill="#fff"/><circle cx="229" cy="358" r="1" fill="#fff"/><circle cx="465" cy="606" r="1" fill="#fff"/><circle cx="625" cy="4" r="2" fill="#fff"/><circle cx="275" cy="480" r="1" fill="#fff"/><circle cx="561" cy="249" r="2" fill="#fff"/><circle cx="360" cy="413" r="2" fill="#fff"/><circle cx="835" cy="420" r="2" fill="#fff"/><circle cx="620" cy="176" r="1" fill="#fff"/><circle cx="213" cy="306" r="2" fill="#fff"/><circle cx="276" cy="148" r="2" fill="#fff"/><circle cx="195" cy="490" r="1" fill="#fff"/><circle cx="82" cy="394" r="2" fill="#fff"/><circle cx="91" cy="102" r="1" fill="#fff"/><circle cx="154" cy="108" r="1" fill="#fff"/><circle cx="934" cy="26" r="1" fill="#fff"/><circle cx="923" cy="32" r="2" fill="#fff"/><circle cx="818" cy="607" r="1" fill="#fff"/><circle cx="625" cy="253" r="1" fill="#fff"/><circle cx="241" cy="29" r="1" fill="#fff"/><circle cx="823" cy="600" r="1" fill="#fff"/><circle cx="549" cy="438" r="1" fill="#fff"/><circle cx="85" cy="297" r="1" fill="#fff"/><circle cx="567" cy="181" r="1" fill="#fff"/><circle cx="37" cy="94" r="1" fill="#fff"/><circle cx="657" cy="140" r="1" fill="#fff"/><circle cx="880" cy="143" r="1" fill="#fff"/><circle cx="30" cy="207" r="1" fill="#fff"/><circle cx="646" cy="125" r="1" fill="#fff"/><circle cx="753" cy="58" r="1" fill="#fff"/><circle cx="21" cy="16" r="1" fill="#fff"/><circle cx="616" cy="95" r="1" fill="#fff"/><circle cx="961" cy="539" r="1" fill="#fff"/><circle cx="787" cy="2" r="2" fill="#fff"/><circle cx="949" cy="122" r="1" fill="#fff"/><circle cx="775" cy="40" r="1" fill="#fff"/><circle cx="205" cy="408" r="1" fill="#fff"/></g>
<polygon points="800,305 625,194 315,250 165,305 315,360 625,416" fill="#301722" stroke="#e26d67" stroke-width="5"/>
<path d="M250 305 L720 305" stroke="#e26d67" opacity=".35" stroke-width="3"/>
<circle cx="560" cy="305" r="38" fill="#090b10" stroke="#e26d67" opacity=".8"/>
<rect x="0" y="530" width="1000" height="120" fill="#090b10" opacity=".96"/>
<text x="48" y="576" fill="#e26d67" font-family="monospace" font-size="17">SCIENCE VESSEL // SCIENCE / RECON</text>
<text x="48" y="620" fill="#edf5f3" font-family="Arial" font-weight="700" font-size="36">Wisp Surveyor</text>
<text x="950" y="615" fill="#f2bf69" font-family="monospace" text-anchor="end" font-size="17">₡190,000</text></svg>